<svg xmlns="http://www.w3.org/2000/svg" viewBox="0 0 64 64">
  <!-- Background circle -->
  <circle cx="32" cy="32" r="32" fill="#16a34a"/>
  
  <!-- Main leaf -->
  <path d="M32 8C24 8 16 16 16 32c0 8 4 16 12 20s16 4 20-4c4-4 8-12 8-20 0-16-8-20-24-20z" fill="#22c55e"/>
  
  <!-- Leaf vein -->
  <path d="M32 12C28 12 24 16 24 28c0 6 3 12 8 14s12 2 14-2c2-2 4-8 4-14 0-12-4-14-18-14z" fill="#4ade80"/>
  
  <!-- Small leaf accent -->
  <path d="M40 20C38 20 36 22 36 28c0 3 1.5 6 4 7s6 1 7-1c1-1 2-4 2-7 0-6-2-7-9-7z" fill="#86efac"/>
  
  <!-- Organic symbol (small circle) -->
  <circle cx="48" cy="16" r="4" fill="#dcfce7"/>
  <circle cx="48" cy="16" r="2" fill="#16a34a"/>
</svg> 